# xmcd
#
# Track frame offsets:
#	183
#	13658
#	30990
#	46683
#	59005
#	72145
#	85635
#	102730
#	120648
#	133943
#	153633
#	168675
#	182685
#	196838
#	210265
#
# Disc length: 2997 seconds
#
# Revision: 4
# Processed by: cddbd v1.5.2PL0 Copyright (c) Steve Scherf et al.
# Submitted via: audiograbber 1.83.01
#
DISCID=ca0bb30f
DTITLE=Koos Alberts - 10 Jaar (Disk 1)
DYEAR=1994
DGENRE=Pop
TTITLE0=Ik Verscheurde Je Foto
TTITLE1=Gisteren Heeft Ze Mij Verlaten
TTITLE2=Ik Verlang Zo Naar Jou
TTITLE3=Ik Zal Je Nooit Vergeten
TTITLE4=Enkele Reis
TTITLE5=Als Iemand Van Je Houdt
TTITLE6=Ik Slaap Vannacht Wel Op De Bank
TTITLE7=Ik Wil Altijd Bij Jouw Zijn
TTITLE8=Blijf Nog Eén Nacht Bij Mij
TTITLE9=Eénmaal Kom Jij Terug
TTITLE10=Zijn Het Je Ogen
TTITLE11=Ik Ben Geboren Om Van Jou Te Houden
TTITLE12=Nog Vele Jaren
TTITLE13=Jij Blijft Bij Mij
TTITLE14=Het Leven Is Te Mooi Voor Tranen
EXTD=YEAR: 1994
EXTT0=
EXTT1=
EXTT2=
EXTT3=
EXTT4=
EXTT5=
EXTT6=
EXTT7=
EXTT8=
EXTT9=
EXTT10=
EXTT11=
EXTT12=
EXTT13=
EXTT14=
PLAYORDER=
